<svg width="335" height="76" viewBox="0 0 335 76" fill="none" xmlns="http://www.w3.org/2000/svg">
<path d="M0 32C0 20.799 0 15.1984 2.17987 10.9202C4.09734 7.15695 7.15695 4.09734 10.9202 2.17987C15.1984 0 20.799 0 32 0H261.506C266.763 0 269.391 0 271.843 0.630659C274.015 1.18959 276.078 2.1101 277.946 3.35363C280.053 4.75674 281.808 6.71277 285.32 10.6248L324.836 54.6499C330.909 61.4153 333.945 64.798 334.063 67.6737C334.165 70.1717 333.093 72.5738 331.166 74.1665C328.947 76 324.402 76 315.311 76H32C20.7989 76 15.1984 76 10.9202 73.8201C7.15695 71.9027 4.09734 68.843 2.17987 65.0798C0 60.8016 0 55.201 0 44V32Z" fill="#7565F0"/>
</svg>
